<svg width="480" height="320" viewBox="0 0 480 320" fill="none" xmlns="http://www.w3.org/2000/svg">
  <rect width="480" height="320" fill="none"/>
  <path d="M48 248C92 208 128 208 168 228C216 252 252 212 268 168C288 114 340 90 380 122C414 148 426 190 408 214C388 240 348 250 320 234C292 218 286 180 296 142C304 110 328 82 360 74C398 64 436 86 448 118" stroke="#E05345" stroke-width="4" stroke-linecap="round" stroke-linejoin="round" stroke-opacity="0.85"/>
  <path d="M60 88C80 58 116 44 156 54C196 64 228 94 230 136C232 178 198 212 164 222C140 230 114 224 98 204C80 182 86 146 112 132C134 120 164 126 182 144C198 160 204 186 198 210" stroke="#BC9283" stroke-width="3" stroke-linecap="round" stroke-linejoin="round" stroke-dasharray="6 14"/>
  <path d="M152 284C168 274 204 254 240 256C276 258 322 282 348 304" stroke="#B63C32" stroke-width="3" stroke-linecap="round" stroke-linejoin="round" stroke-opacity="0.6"/>
  <circle cx="118" cy="84" r="6" fill="#E05345"/>
  <circle cx="182" cy="234" r="5" fill="#B63C32"/>
  <circle cx="360" cy="118" r="7" fill="#E05345" fill-opacity="0.8"/>
</svg>
